<svg xmlns:xlink="http://www.w3.org/1999/xlink" width="20" height="20" viewBox="0 0 20 20" fill="none" xmlns="http://www.w3.org/2000/svg">
<path d="M18.795 7.16251C18.625 6.39376 18.3837 5.65376 17.5588 5.93126C17.1838 6.05876 16.8363 6.28751 16.505 6.51876C15.6346 7.13497 14.8668 7.88459 14.23 8.74001C13.4225 7.21501 12.0838 6.05251 10.8175 5.25751C8.84875 4.02001 6.87375 3.85751 4.8425 4.95876C3.125 5.89001 1.6575 7.53751 1.175 9.64626C1.14681 9.77166 1.12553 9.89852 1.11125 10.0263C1.12625 10.1513 1.145 10.2788 1.17375 10.4063C1.6575 12.5138 3.12625 14.1625 4.8425 15.0938C6.87375 16.1938 8.84875 16.0325 10.8175 14.7938C12.0838 13.9988 13.4225 12.8375 14.23 11.3113C14.8668 12.1663 15.6346 12.9155 16.505 13.5313C16.8363 13.7638 17.1825 13.9938 17.5588 14.12C18.3837 14.3975 18.625 13.6588 18.795 12.8888C19.0013 11.955 19.0575 10.9863 19.0312 10.0263C19.0562 9.06626 19.0012 8.09751 18.7937 7.16376" fill="#52B5CB"/>
</svg>
