<svg xmlns:xlink="http://www.w3.org/1999/xlink" xmlns="http://www.w3.org/2000/svg" width="20" height="20" viewBox="0 0 20 20" fill="none">
<path d="M9.91625 6.10752C10.5495 6.10752 11.1567 5.85598 11.6045 5.40824C12.0522 4.96049 12.3038 4.35322 12.3038 3.72002C12.3038 3.08682 12.0522 2.47955 11.6045 2.0318C11.1567 1.58406 10.5495 1.33252 9.91625 1.33252C9.28305 1.33252 8.67578 1.58406 8.22803 2.0318C7.78029 2.47955 7.52875 3.08682 7.52875 3.72002C7.52875 4.35322 7.78029 4.96049 8.22803 5.40824C8.67578 5.85598 9.28305 6.10752 9.91625 6.10752ZM15.8913 3.29377C15.5777 3.29377 15.2673 3.35552 14.9776 3.47551C14.6879 3.59549 14.4247 3.77135 14.203 3.99305C13.9813 4.21475 13.8055 4.47795 13.6855 4.76761C13.5655 5.05728 13.5037 5.36774 13.5037 5.68127C13.5037 5.9948 13.5655 6.30526 13.6855 6.59493C13.8055 6.88459 13.9813 7.14779 14.203 7.36949C14.4247 7.59119 14.6879 7.76705 14.9776 7.88703C15.2673 8.00702 15.5777 8.06877 15.8913 8.06877C16.5245 8.06877 17.1317 7.81723 17.5795 7.36949C18.0272 6.92174 18.2787 6.31447 18.2787 5.68127C18.2787 5.04807 18.0272 4.4408 17.5795 3.99305C17.1317 3.54531 16.5245 3.29377 15.8913 3.29377ZM6.33 5.68002C6.33 5.04682 6.07846 4.43955 5.63072 3.9918C5.18297 3.54406 4.5757 3.29252 3.9425 3.29252C3.3093 3.29252 2.70203 3.54406 2.25428 3.9918C1.80654 4.43955 1.555 5.04682 1.555 5.68002C1.555 6.31322 1.80654 6.92049 2.25428 7.36824C2.70203 7.81598 3.3093 8.06752 3.9425 8.06752C4.5757 8.06752 5.18297 7.81598 5.63072 7.36824C6.07846 6.92049 6.33 6.31322 6.33 5.68002ZM9.895 7.63752C9.14865 7.62176 8.40666 7.75515 7.71253 8.02987C7.01841 8.3046 6.3861 8.71512 5.85269 9.23739C5.31928 9.75965 4.8955 10.3832 4.60618 11.0713C4.31687 11.7595 4.16784 12.4985 4.16784 13.245C4.16784 13.9915 4.31687 14.7305 4.60618 15.4187C4.8955 16.1069 5.31928 16.7304 5.85269 17.2526C6.3861 17.7749 7.01841 18.1854 7.71253 18.4602C8.40666 18.7349 9.14865 18.8683 9.895 18.8525C11.3679 18.8305 12.773 18.23 13.8067 17.1807C14.8405 16.1313 15.42 14.7174 15.42 13.2444C15.42 11.7714 14.8405 10.3575 13.8067 9.30812C12.773 8.25879 11.3679 7.65826 9.895 7.63627" fill="#F5BC44"/>
</svg>