<svg xmlns:xlink="http://www.w3.org/1999/xlink" xmlns="http://www.w3.org/2000/svg" width="20" height="20" viewBox="0 0 20 20" fill="none">
<path d="M12.1812 15.31C11.463 15.8451 10.6288 16.2035 9.74625 16.3563C9.21625 16.4513 8.675 16.4138 8.14875 16.3113C7.66625 16.2188 7.07375 16.1263 6.6575 15.8613C6.48 15.75 5.9225 17.0738 5.85125 17.205C5.475 17.8975 4.8725 18.455 4.155 18.7525C4.1225 18.7663 4.085 18.7788 4.05375 18.765C4.0175 18.7475 4.00625 18.7025 4 18.6625C3.89 17.95 4.125 17.2325 4.54125 16.655C4.6475 16.5088 5.82875 15.3238 5.63625 15.195C5.22625 14.9188 4.90375 14.4125 4.625 14.0088C4.32 13.5675 4.06875 13.0875 3.9425 12.5625C3.72865 11.6928 3.72265 10.785 3.925 9.91251C4.00125 9.55501 4.2325 9.08626 4.54875 8.88251C4.63375 8.82876 5.1575 9.46751 5.215 9.53126C5.56125 9.91501 5.845 10.2663 6.29 10.5538L5.48375 8.47501C5.43375 8.34751 5.38375 8.21001 5.41125 8.07501C5.44135 7.97228 5.49386 7.8775 5.565 7.79751C7.465 5.31251 9.4125 2.63001 12.5725 1.74126C12.8087 1.67501 15.39 0.882508 15.5225 1.17626C16.2175 2.70376 16.435 4.41751 16.2537 6.08001C16.0938 7.53876 15.4912 9.00501 14.9987 10.3388C14.655 11.2675 13.9412 12.09 13.4613 12.9588C13.4165 13.0561 13.3508 13.1423 13.2687 13.2113C13.1562 13.2913 13.01 13.2988 12.8725 13.3063L10.645 13.4C11.0875 13.6925 11.5225 13.8125 12.0125 13.975C12.0938 14.0025 12.89 14.225 12.875 14.325C12.815 14.6963 12.4788 15.095 12.1812 15.31Z" fill="#EF91BA"/>
</svg>