<svg xmlns:xlink="http://www.w3.org/1999/xlink" xmlns="http://www.w3.org/2000/svg" width="20" height="20" viewBox="0 0 20 20" fill="none">
<path d="M16.58 3.99751C14.6238 4.41001 12.7338 5.24001 11.475 6.76751C10.788 7.60768 10.2855 8.58296 10 9.63001C9.71452 8.58296 9.21198 7.60768 8.525 6.76751C7.26625 5.24001 5.37625 4.40876 3.42 3.99751C2.97375 3.90376 2.4825 3.77126 2.025 3.75126C1.125 3.71251 1.26 4.93626 1.255 5.55001C1.2475 6.38251 1.38375 7.21001 1.56625 8.02376C1.78 8.97876 1.955 9.98751 2.63 10.765C3.075 11.2775 3.6875 11.63 4.28125 11.98C4.385 12.04 4.4925 12.105 4.5475 12.2088C4.61 12.3275 4.58875 12.4688 4.5675 12.6L4.08875 15.4063C4.0525 15.6163 4.02875 15.8638 4.19 16.0113C4.27708 16.0792 4.37978 16.1244 4.48875 16.1425C6.40625 16.6013 8.5025 15.545 9.50125 13.925C9.72125 13.5675 9.8825 13.1938 10 12.8088C10.1175 13.1938 10.2788 13.5675 10.4988 13.925C11.4975 15.545 13.5938 16.6013 15.5113 16.1425C15.6198 16.1242 15.7221 16.0791 15.8088 16.0113C15.9713 15.8638 15.9463 15.6163 15.9113 15.4063L15.4325 12.6C15.41 12.4688 15.39 12.3275 15.4525 12.2088C15.5075 12.1063 15.615 12.04 15.7175 11.98C16.3125 11.63 16.925 11.2788 17.37 10.765C18.045 9.98751 18.22 8.97751 18.4338 8.02376C18.6163 7.21126 18.7525 6.38251 18.7463 5.54876C18.74 4.93626 18.8763 3.71126 17.975 3.75126C17.5175 3.77126 17.0263 3.90376 16.58 3.99751Z" fill="#EC604C"/>
</svg>