<svg xmlns:xlink="http://www.w3.org/1999/xlink" data-v-10a96f1b="" width="10" height="8" viewBox="0 0 10 8" fill="none" xmlns="http://www.w3.org/2000/svg" data-v-16e087b4=""><path fill-rule="evenodd" clip-rule="evenodd" d="M1.62813 1.49193C1.62813 1.49193 0.83855 0.860858 0.784249 2.41946C0.729947 3.62731 0.731415 5.97256 1.29058 7.0806C1.52686 7.49741 1.8424 7.36972 2.42944 6.95439C2.94017 6.57721 4.7879 4.87478 5.57014 4.12777C6.35238 3.38075 7.93887 1.23804 8.26908 2.69391C8.3997 3.3059 8.56114 3.82544 8.43786 5.18298C8.3997 5.60125 8.22065 5.91825 7.40465 5.35175C6.78826 4.9555 6.20268 4.52989 6.20268 4.52989C6.20268 4.52989 6.08967 4.32736 5.82257 4.65611C5.6127 4.91881 5.50703 4.98338 5.84311 5.18298C6.18067 5.38257 7.8875 6.5596 8.54206 6.74305C9.08214 6.90009 9.39034 6.89715 9.40648 5.83607C9.40355 4.99366 9.35511 2.58237 9.04838 1.55504C8.8165 0.91516 8.47601 0.624573 7.74074 1.3437C7.00546 2.06283 4.68663 4.31122 3.41862 5.32974C2.57767 5.96081 2.21811 6.53025 1.9011 5.47797C1.67803 4.68106 1.38891 2.20079 2.30176 2.67336C2.87266 2.94634 3.15738 2.94487 2.9343 3.11658C2.71123 3.28682 2.06988 3.87534 2.06988 3.87534C2.06988 3.87534 1.87175 4.03531 1.96421 4.38166C2.05667 4.62382 2.05667 4.74416 2.55419 4.27599C3.05171 3.80783 3.41862 3.45413 3.41862 3.45413C3.41862 3.45413 3.49787 3.32938 3.73415 3.5598C3.97044 3.79021 4.0086 3.85479 4.0086 3.85479C4.0086 3.85479 4.0717 4.0265 4.32413 3.72857C4.57803 3.43065 4.74094 3.24867 4.26103 2.96982C3.78258 2.68804 1.62813 1.49193 1.62813 1.49193Z" fill="#FFFFFF"></path></svg>