<svg xmlns:xlink="http://www.w3.org/1999/xlink" xmlns="http://www.w3.org/2000/svg" width="20" height="20" viewBox="0 0 20 20" fill="none">
<path d="M9.53751 2.02843C11.1098 1.89479 12.7045 2.23446 14.0842 3.00211C14.7602 3.37797 15.3809 3.85264 15.9221 4.40584C16.1863 4.6763 16.4316 4.96542 16.6553 5.27048C16.7963 5.46239 16.9259 5.67912 17.0196 5.8979C17.0432 5.95299 17.0716 6.01469 17.0771 6.07524C17.0866 6.17723 17.0482 6.16995 16.9643 6.12032C16.7465 5.99215 16.5485 5.83416 16.3361 5.69779C16.0512 5.51453 15.7465 5.36154 15.4289 5.24293C14.7722 4.99729 14.0638 4.9019 13.3655 4.96132C10.741 5.1842 8.79402 7.49491 9.01638 10.1227C9.23898 12.7506 11.547 14.7 14.1713 14.4771C14.8561 14.4191 15.5253 14.213 16.1228 13.8731C16.412 13.7081 16.6812 13.5125 16.9314 13.2929C17.1085 13.1371 17.2645 12.983 17.4227 12.81C17.4459 12.7845 17.5446 12.7 17.5521 12.7795C17.5609 12.8751 17.5518 12.9643 17.5364 13.0593C17.495 13.3136 17.4182 13.5421 17.3077 13.7759C17.1992 14.0061 17.0698 14.2258 16.9275 14.4359C16.6333 14.8701 16.284 15.2657 15.908 15.6295C15.624 15.9043 15.3232 16.1615 15.0078 16.3992C13.8093 17.3017 12.3785 17.8357 10.8876 17.971C6.49076 18.3441 2.62434 15.0781 2.25122 10.6757C1.87856 6.2733 5.14064 2.40178 9.53751 2.02843ZM14.4055 6.90906C14.5585 6.90906 15.0333 7.91188 15.3805 8.69434C16.1658 9.04151 17.1265 9.49478 17.1265 9.63342C17.1265 9.77365 16.1449 10.2353 15.3548 10.5839C15.0065 11.3748 14.5454 12.3578 14.4055 12.3578C14.2671 12.3578 13.8146 11.3962 13.4674 10.6096C12.6859 10.2622 11.6844 9.78686 11.6844 9.63342C11.6844 9.4818 12.6641 9.0151 13.4417 8.66861C13.7878 7.89003 14.2539 6.90906 14.4055 6.90906Z" fill="#428E91"/>
</svg>