<svg xmlns:xlink="http://www.w3.org/1999/xlink" xmlns="http://www.w3.org/2000/svg" width="20" height="20" viewBox="0 0 20 20" fill="none">
<path d="M11.5376 12.2951C11.9024 12.344 12.3049 12.3367 12.6682 12.2942C12.5504 12.4829 12.3042 12.6187 12.1189 12.7285C11.6418 13.0114 11.0667 13.0849 10.5207 13.068C10.0938 13.0547 9.67089 12.944 9.28889 12.754C8.91155 12.5667 8.578 12.3574 8.31378 12.0227C8.31111 12.0194 8.30933 12.0149 8.30778 12.0107C8.29 11.9938 8.27111 11.9789 8.25355 11.9616C7.24355 10.9516 7.24355 9.31425 8.25355 8.30425C8.36467 8.19336 8.48422 8.09669 8.60844 8.01025C8.24511 7.96225 7.84489 7.96936 7.48311 8.0118C7.60089 7.82314 7.84711 7.68714 8.03244 7.57758C8.50978 7.29447 9.08489 7.22114 9.63066 7.2378C10.0576 7.25114 10.4804 7.36203 10.8624 7.5518C11.1589 7.69914 11.4278 7.86091 11.6578 8.08514C11.7453 8.15247 11.8304 8.22425 11.9109 8.30425C12.9209 9.31425 12.9209 10.9516 11.9109 11.9616C11.7849 12.0874 11.6496 12.1976 11.5067 12.2918C11.5167 12.2929 11.5276 12.294 11.5376 12.2951ZM13.8913 3.43047C13.1513 2.99758 7.014 3.0118 6.26 3.43047C5.506 3.84936 2.44444 8.75269 2.44444 10.0396C2.44444 11.3265 5.52022 16.1229 6.26 16.6482C7 17.1736 13.1373 17.16 13.8913 16.6482C14.6451 16.1365 17.7069 11.086 17.7069 10.0396C17.7069 8.99314 14.6313 3.8638 13.8913 3.43047Z" fill="#C4BCD3"/>
</svg>