<svg xmlns:xlink="http://www.w3.org/1999/xlink" xmlns="http://www.w3.org/2000/svg" width="20" height="20" viewBox="0 0 20 20" fill="none">
<path d="M17.7563 5.44623C16.7613 4.65373 15.4038 4.26998 14.1438 4.52123C12.205 4.90748 10.6625 6.63748 10 8.44623C9.3375 6.63748 7.795 4.90748 5.8575 4.52123C4.59625 4.26998 3.23875 4.65373 2.24375 5.44623C1.05875 6.38998 0.625001 7.86373 1.045 9.31248C1.36375 10.4112 2.4325 10.8175 3.46125 11.0175C4.60125 11.24 5.84375 11.43 6.7325 12.2637C7.43827 12.9356 7.96762 13.7711 8.27375 14.6962C8.365 14.9687 8.445 15.2462 8.51125 15.5275C8.5725 15.7812 8.58125 16.0462 8.63125 16.3025C8.67625 16.54 8.77125 16.435 8.86875 16.315C9.35875 15.7087 9.73375 14.965 10 14.195C10.2663 14.965 10.6413 15.7075 11.1313 16.3137C11.2288 16.435 11.3238 16.5387 11.3688 16.3012C11.4188 16.0462 11.4288 15.7812 11.4888 15.5275C11.555 15.2475 11.635 14.9687 11.7263 14.6962C12.0327 13.771 12.5625 12.9355 13.2688 12.2637C14.1563 11.4312 15.3975 11.2387 16.5388 11.0175C17.5675 10.8175 18.6362 10.4112 18.955 9.31248C19.3738 7.86248 18.9413 6.38998 17.7563 5.44623Z" fill="#80BD38"/>
</svg>