<svg xmlns:xlink="http://www.w3.org/1999/xlink" xmlns="http://www.w3.org/2000/svg" width="20" height="20" viewBox="0 0 20 20" fill="none">
<path d="M17.4088 10.07C17.0076 10.0701 16.6202 10.2163 16.319 10.4813C16.0178 10.7464 15.8236 11.1121 15.7725 11.51C15.6038 11.7487 15.3338 12.0512 15.0438 12.105C14.8075 12.1487 14.4725 11.97 14.285 11.8362C14.0489 11.6592 13.8503 11.437 13.701 11.1825C13.5516 10.9279 13.4544 10.6462 13.415 10.3537C13.2838 9.31499 13.03 7.63499 13.82 6.78249C13.8525 6.78374 13.8863 6.78749 13.92 6.78749C14.3255 6.78784 14.7197 6.65406 15.0412 6.40698C15.3628 6.15989 15.5935 5.8134 15.6976 5.42148C15.8016 5.02956 15.7731 4.61423 15.6165 4.24021C15.4598 3.86619 15.1839 3.55448 14.8316 3.35366C14.4793 3.15284 14.0705 3.07418 13.6689 3.12995C13.2673 3.18572 12.8953 3.37277 12.6111 3.66197C12.3269 3.95117 12.1463 4.32626 12.0975 4.72881C12.0486 5.13136 12.1344 5.53874 12.3413 5.88749C12.4138 6.83499 11.8988 7.82999 11.1488 8.38749C10.9834 8.51513 10.8028 8.62177 10.6113 8.70499C10.3013 8.83124 9.8675 8.82999 9.56125 8.70499C9.36963 8.62182 9.18908 8.51517 9.02375 8.38749C8.27375 7.82999 7.75875 6.83499 7.83125 5.88749C8.03816 5.5387 8.12387 5.13125 8.07502 4.72865C8.02617 4.32606 7.8455 3.95093 7.56118 3.66175C7.27685 3.37256 6.90485 3.18556 6.50314 3.12989C6.10143 3.07422 5.69259 3.153 5.34034 3.35397C4.98808 3.55494 4.71221 3.8668 4.55572 4.24093C4.39922 4.61507 4.3709 5.03047 4.47516 5.42239C4.57942 5.81431 4.81041 6.16072 5.13212 6.40764C5.45384 6.65456 5.8482 6.78812 6.25375 6.78749C6.28625 6.78749 6.31875 6.78374 6.3525 6.78249C7.14125 7.63499 6.8875 9.31499 6.75625 10.3537C6.685 10.9225 6.35625 11.5037 5.88625 11.8362C5.7 11.97 5.36375 12.1487 5.1275 12.105C4.8375 12.0512 4.56875 11.7487 4.4 11.51C4.35447 11.1569 4.19594 10.8279 3.94807 10.5723C3.70021 10.3167 3.37632 10.1482 3.02476 10.0918C2.6732 10.0354 2.31284 10.0943 1.99749 10.2596C1.68215 10.4249 1.42873 10.6878 1.27508 11.009C1.12144 11.3302 1.07581 11.6924 1.14501 12.0417C1.21421 12.3909 1.39453 12.7084 1.65904 12.9468C1.92355 13.1851 2.25806 13.3315 2.61261 13.3641C2.96717 13.3966 3.32275 13.3136 3.62625 13.1275C3.75941 13.0826 3.9019 13.0727 4.04 13.0987C4.815 13.2512 5.40875 13.8537 5.89125 14.4375C6.4075 15.0612 6.96625 15.6237 7.67875 16.015C8.0875 16.24 8.51875 16.435 8.965 16.575C9.20875 16.65 9.51875 16.685 9.77375 16.7175C10.3538 16.7925 11.0262 16.655 11.5675 16.4462C11.8863 16.325 12.195 16.1787 12.4938 16.015C13.205 15.6237 13.765 15.0612 14.2813 14.4375C14.7638 13.8537 15.3575 13.2512 16.1313 13.1C16.2692 13.0734 16.4117 13.0829 16.545 13.1275C16.7625 13.2613 17.008 13.3429 17.2624 13.3658C17.5167 13.3887 17.7729 13.3523 18.0108 13.2595C18.2487 13.1667 18.4618 13.0199 18.6334 12.8308C18.805 12.6417 18.9304 12.4153 18.9997 12.1695C19.0691 11.9238 19.0804 11.6653 19.033 11.4143C18.9855 11.1634 18.8805 10.9269 18.7262 10.7235C18.5719 10.52 18.3725 10.3551 18.1437 10.2417C17.9149 10.1283 17.6629 10.0695 17.4075 10.07" fill="#D18FDF"/>
</svg>